<?xml version="1.0" encoding="UTF-8"?>
<svg width="225pt" version="1.1" xmlns="http://www.w3.org/2000/svg" height="94pt" viewBox="0 0 225 94" xmlns:xlink="http://www.w3.org/1999/xlink">
 <defs>
  <clipPath id="Clip0">
   <path d="M0 0 L0 93.8467 L224.003 93.8467 L224.003 0 L0 0 Z" transform="translate(0, 0.15332)"/>
  </clipPath>
 </defs>
 <g id="Hintergrund">
  <g id="Gruppe1" clip-path="url(#Clip0)">
   <path style="fill:#ffffff; fill-rule:nonzero;stroke:none;" d="M6.66796 12.1093 L0 12.1093 L0 0 L1.34765 0 L1.34765 10.9023 L6.66796 10.9023 L6.66796 12.1093 Z" transform="translate(0.487305, 78.0059)"/>
   <path style="fill:#ffffff; fill-rule:nonzero;stroke:none;" d="M1.34766 6.3877 C1.34766 7.461 1.79102 7.9971 2.67777 7.9971 C3.47067 7.9971 4.25197 7.8633 5.02247 7.5948 L5.42477 7.4541 L5.42477 4.5674 L2.83497 4.8125 C2.30957 4.8584 1.93067 5.0108 1.69727 5.2666 C1.46387 5.5244 1.34766 5.8975 1.34766 6.3877 Z M6.73727 2.8174 L6.73727 7.2979 C6.77247 7.7295 7.11037 7.9854 7.75197 8.0674 L7.70017 9.0996 C6.77837 9.0996 6.08397 8.8662 5.61717 8.3994 C4.56737 8.8662 3.51757 9.0996 2.46777 9.0996 C1.66211 9.0996 1.04981 8.8721 0.62988 8.417 C0.20996 7.9619 0 7.3096 0 6.458 C0 5.6065 0.21582 4.9785 0.64746 4.5762 C1.0791 4.1729 1.75586 3.9258 2.67777 3.833 L5.42477 3.5694 L5.42477 2.8174 C5.42477 2.2217 5.29587 1.7959 5.04007 1.5401 C4.78317 1.2832 4.43257 1.1553 3.99027 1.1553 C3.05667 1.1553 2.08787 1.2139 1.08496 1.3291 L0.54199 1.3819 L0.49024 0.3848 C1.77344 0.128 2.91017 0 3.90237 0 C4.89357 0 5.61427 0.2276 6.06347 0.6826 C6.51267 1.1377 6.73727 1.8487 6.73727 2.8174 Z" transform="translate(8.08203, 81.1904)"/>
   <path style="fill:#ffffff; fill-rule:nonzero;stroke:none;" d="M1.3125 8.9248 L0 8.9248 L0 0.1748 L1.2949 0.1748 L1.2949 0.7871 C2.2402 0.2627 3.1445 0 4.0078 0 C5.1738 0 5.959 0.3155 6.3613 0.9444 C6.7637 1.5752 6.9648 2.6944 6.9648 4.3047 L6.9648 8.9248 L5.6699 8.9248 L5.6699 4.3399 C5.6699 3.126 5.5508 2.2959 5.3115 1.8467 C5.0722 1.3975 4.5615 1.1729 3.7803 1.1729 C3.4062 1.1729 3.0127 1.2276 2.5986 1.3389 C2.1846 1.4502 1.8672 1.5576 1.6455 1.6621 L1.3125 1.8194 L1.3125 8.9248 Z" transform="translate(17.4092, 81.1904)"/>
   <path style="fill:#ffffff; fill-rule:nonzero;stroke:none;" d="M2.5547 11.4443 C2.7646 11.5263 3.0361 11.5664 3.3691 11.5664 C3.7011 11.5664 4.0742 11.5117 4.4883 11.4004 C4.9023 11.29 5.2265 11.1816 5.4599 11.0771 L5.8095 10.9199 L5.8095 4.9863 C5.0635 4.8476 4.3691 4.7773 3.7275 4.7773 C2.8408 4.7773 2.2226 5.0605 1.872 5.625 C1.5224 6.1914 1.3476 7.0693 1.3476 8.2597 C1.3476 9.6133 1.5517 10.5234 1.9599 10.9892 C2.1465 11.2109 2.3447 11.3633 2.5547 11.4443 Z M7.1054 0 L7.1054 12.5644 L5.8095 12.5644 L5.8095 11.9687 C4.9111 12.4824 4.0254 12.7392 3.1504 12.7392 C2.6836 12.7392 2.2754 12.6816 1.9248 12.5644 C1.5752 12.4472 1.248 12.2383 0.9453 11.9346 C0.3154 11.3047 0 10.1406 0 8.4433 C0 6.7461 0.2832 5.5205 0.8486 4.7676 C1.414 4.0156 2.3506 3.6396 3.6572 3.6396 C4.334 3.6396 5.0517 3.7148 5.8095 3.8672 L5.8095 0 L7.1054 0 Z" transform="translate(26.4219, 77.5508)"/>
   <path style="fill:#ffffff; fill-rule:nonzero;stroke:none;" d="M5.8623 4.042 C5.8623 2.9698 5.6904 2.211 5.3467 1.7666 C5.0019 1.3242 4.4424 1.1026 3.666 1.1026 C2.8906 1.1026 2.3066 1.336 1.916 1.8018 C1.5254 2.2686 1.3242 3.0157 1.3125 4.042 L5.8623 4.042 Z M6.3349 7.8399 L6.8428 7.7871 L6.8779 8.8194 C5.5478 9.0069 4.4101 9.0996 3.4648 9.0996 C2.2051 9.0996 1.3125 8.7354 0.7871 8.0059 C0.2627 7.2764 0 6.1416 0 4.6026 C0 1.5342 1.2187 0 3.6572 0 C4.8359 0 5.7168 0.3291 6.2998 0.9893 C6.8828 1.6475 7.1748 2.6826 7.1748 4.0948 L7.1055 5.0928 L1.3301 5.0928 C1.3301 6.0616 1.5049 6.7784 1.8555 7.2451 C2.2051 7.7119 2.8144 7.9444 3.6836 7.9444 C4.5527 7.9444 5.4365 7.9092 6.3349 7.8399 Z" transform="translate(35.6797, 81.1904)"/>
   <path style="fill:#ffffff; fill-rule:nonzero;stroke:none;" d="M3.2207 1.1729 C1.9483 1.1729 1.3125 1.6162 1.3125 2.503 C1.3125 2.9112 1.459 3.2002 1.75 3.3682 C2.042 3.5381 2.707 3.7129 3.7451 3.8936 C4.7832 4.0752 5.5186 4.3282 5.9502 4.6553 C6.3818 4.9815 6.5977 5.5948 6.5977 6.4922 C6.5977 7.3907 6.3096 8.0498 5.7315 8.4698 C5.1543 8.8897 4.3115 9.0996 3.2031 9.0996 C2.4795 9.0996 1.6279 9.0186 0.6475 8.8545 L0.1231 8.7666 L0.1934 7.6299 C1.5225 7.8282 2.5264 7.9268 3.2031 7.9268 C3.8789 7.9268 4.3955 7.8194 4.752 7.6035 C5.1074 7.3877 5.2852 7.0264 5.2852 6.5186 C5.2852 6.0108 5.1338 5.667 4.8301 5.4854 C4.5274 5.3057 3.8623 5.1338 2.835 4.9698 C1.8086 4.8067 1.0791 4.5674 0.6475 4.253 C0.2158 3.9375 0 3.3545 0 2.503 C0 1.6514 0.3008 1.0205 0.9014 0.6123 C1.502 0.2041 2.252 0 3.1504 0 C3.8623 0 4.7539 0.0811 5.8281 0.2451 L6.3184 0.333 L6.2832 1.4522 C4.9883 1.2657 3.9668 1.1729 3.2207 1.1729 Z" transform="translate(44.4287, 81.1904)"/>
   <path style="fill:#ffffff; fill-rule:nonzero;stroke:none;" d="M1.3125 8.9248 L0 8.9248 L0 0.1748 L1.2949 0.1748 L1.2949 0.7871 C2.1699 0.2627 3.0214 0 3.8505 0 C4.9355 0 5.6933 0.2979 6.125 0.8916 C6.5097 0.6592 7.0088 0.4522 7.6211 0.2705 C8.2343 0.0909 8.7734 0 9.2402 0 C10.4062 0 11.1914 0.3116 11.5937 0.9366 C11.9961 1.5606 12.1972 2.6826 12.1972 4.3047 L12.1972 8.9248 L10.8847 8.9248 L10.8847 4.3399 C10.8847 3.126 10.7685 2.2959 10.5351 1.8467 C10.3017 1.3975 9.8056 1.1729 9.0478 1.1729 C8.663 1.1729 8.2656 1.2276 7.8574 1.3389 C7.4492 1.4502 7.1338 1.5576 6.913 1.6621 L6.58 1.8194 C6.7314 2.2041 6.8076 3.0567 6.8076 4.375 L6.8076 8.9248 L5.4951 8.9248 L5.4951 4.4092 C5.4951 3.1494 5.3818 2.2959 5.1543 1.8467 C4.9267 1.3975 4.4277 1.1729 3.6582 1.1729 C3.2841 1.1729 2.9023 1.2276 2.5117 1.3389 C2.1201 1.4502 1.8203 1.5576 1.6103 1.6621 L1.3125 1.8194 L1.3125 8.9248 Z" transform="translate(53.0391, 81.1904)"/>
   <path style="fill:#ffffff; fill-rule:nonzero;stroke:none;" d="M5.8623 4.042 C5.8623 2.9698 5.6904 2.211 5.3467 1.7666 C5.0019 1.3242 4.4424 1.1026 3.666 1.1026 C2.8906 1.1026 2.3066 1.336 1.916 1.8018 C1.5254 2.2686 1.3242 3.0157 1.3125 4.042 L5.8623 4.042 Z M6.3349 7.8399 L6.8428 7.7871 L6.8779 8.8194 C5.5478 9.0069 4.4101 9.0996 3.4648 9.0996 C2.2051 9.0996 1.3125 8.7354 0.7871 8.0059 C0.2627 7.2764 0 6.1416 0 4.6026 C0 1.5342 1.2187 0 3.6572 0 C4.8359 0 5.7168 0.3291 6.2998 0.9893 C6.8828 1.6475 7.1748 2.6826 7.1748 4.0948 L7.1054 5.0928 L1.3301 5.0928 C1.3301 6.0616 1.5049 6.7784 1.8554 7.2451 C2.2051 7.7119 2.8144 7.9444 3.6836 7.9444 C4.5527 7.9444 5.4365 7.9092 6.3349 7.8399 Z" transform="translate(67.2842, 81.1904)"/>
   <path style="fill:#ffffff; fill-rule:nonzero;stroke:none;" d="M2.5547 11.4443 C2.7646 11.5263 3.0361 11.5664 3.3691 11.5664 C3.7012 11.5664 4.0742 11.5117 4.4883 11.4004 C4.9023 11.29 5.2266 11.1816 5.46 11.0771 L5.8096 10.9199 L5.8096 4.9863 C5.0635 4.8476 4.3691 4.7773 3.7275 4.7773 C2.8408 4.7773 2.2227 5.0605 1.8721 5.625 C1.5225 6.1914 1.3477 7.0693 1.3477 8.2597 C1.3477 9.6133 1.5518 10.5234 1.96 10.9892 C2.1465 11.2109 2.3447 11.3633 2.5547 11.4443 Z M7.1055 0 L7.1055 12.5644 L5.8096 12.5644 L5.8096 11.9687 C4.9111 12.4824 4.0254 12.7392 3.1504 12.7392 C2.6836 12.7392 2.2754 12.6816 1.9248 12.5644 C1.5752 12.4472 1.248 12.2383 0.9453 11.9346 C0.3154 11.3047 0 10.1406 0 8.4433 C0 6.7461 0.2832 5.5205 0.8486 4.7676 C1.4141 4.0156 2.3506 3.6396 3.6572 3.6396 C4.334 3.6396 5.0518 3.7148 5.8096 3.8672 L5.8096 0 L7.1055 0 Z" transform="translate(76.1211, 77.5508)"/>
   <path style="fill:#ffffff; fill-rule:nonzero;stroke:none;" d="M0 12.25 L0 3.5 L1.3125 3.5 L1.3125 12.25 L0 12.25 Z M0 1.5225 L0 0 L1.3125 0 L1.3125 1.5225 L0 1.5225 Z" transform="translate(85.7637, 77.8652)"/>
   <path style="fill:#ffffff; fill-rule:nonzero;stroke:none;" d="M5.8623 4.042 C5.8623 2.9698 5.6905 2.211 5.3467 1.7666 C5.002 1.3242 4.4424 1.1026 3.6661 1.1026 C2.8907 1.1026 2.3067 1.336 1.9161 1.8018 C1.5254 2.2686 1.3243 3.0157 1.3125 4.042 L5.8623 4.042 Z M6.335 7.8399 L6.8428 7.7871 L6.878 8.8194 C5.5479 9.0069 4.4102 9.0996 3.4649 9.0996 C2.2051 9.0996 1.3125 8.7354 0.7871 8.0059 C0.2627 7.2764 0 6.1416 0 4.6026 C0 1.5342 1.2188 0 3.6573 0 C4.836 0 5.7168 0.3291 6.2998 0.9893 C6.8829 1.6475 7.1748 2.6826 7.1748 4.0948 L7.1055 5.0928 L1.3301 5.0928 C1.3301 6.0616 1.5049 6.7784 1.8555 7.2451 C2.2051 7.7119 2.8145 7.9444 3.6836 7.9444 C4.5528 7.9444 5.4366 7.9092 6.335 7.8399 Z" transform="translate(89.2109, 81.1904)"/>
   <path style="fill:#ffffff; fill-rule:nonzero;stroke:none;" d="M1.3125 8.9248 L0 8.9248 L0 0.1748 L1.2949 0.1748 L1.2949 0.7871 C2.2404 0.2627 3.1444 0 4.0074 0 C5.1734 0 5.9594 0.3155 6.3614 0.9444 C6.7634 1.5752 6.9644 2.6944 6.9644 4.3047 L6.9644 8.9248 L5.6704 8.9248 L5.6704 4.3399 C5.6704 3.126 5.5504 2.2959 5.3114 1.8467 C5.0724 1.3975 4.5614 1.1729 3.7804 1.1729 C3.4064 1.1729 3.0124 1.2276 2.5984 1.3389 C2.1844 1.4502 1.8674 1.5576 1.6454 1.6621 L1.3125 1.8194 L1.3125 8.9248 Z" transform="translate(98.4326, 81.1904)"/>
   <path style="fill:#ffffff; fill-rule:nonzero;stroke:none;" d="M0 1.1719 L0 0 L6.492 0 L6.492 1.1719 L1.591 7.5782 L6.492 7.5782 L6.492 8.75 L0 8.75 L0 7.5782 L4.899 1.1719 L0 1.1719 Z" transform="translate(107.306, 81.3652)"/>
   <path style="fill:#ffffff; fill-rule:nonzero;stroke:none;" d="M5.863 4.042 C5.863 2.9698 5.691 2.211 5.347 1.7666 C5.002 1.3242 4.443 1.1026 3.667 1.1026 C2.891 1.1026 2.307 1.336 1.917 1.8018 C1.526 2.2686 1.325 3.0157 1.313 4.042 L5.863 4.042 Z M6.335 7.8399 L6.843 7.7871 L6.878 8.8194 C5.548 9.0069 4.411 9.0996 3.465 9.0996 C2.206 9.0996 1.313 8.7354 0.788 8.0059 C0.263 7.2764 0 6.1416 0 4.6026 C0 1.5342 1.219 0 3.658 0 C4.836 0 5.717 0.3291 6.3 0.9893 C6.883 1.6475 7.175 2.6826 7.175 4.0948 L7.106 5.0928 L1.331 5.0928 C1.331 6.0616 1.505 6.7784 1.856 7.2451 C2.206 7.7119 2.815 7.9444 3.684 7.9444 C4.553 7.9444 5.437 7.9092 6.335 7.8399 Z" transform="translate(115.354, 81.1904)"/>
   <path style="fill:#ffffff; fill-rule:nonzero;stroke:none;" d="M1.313 8.9248 L0 8.9248 L0 0.1748 L1.295 0.1748 L1.295 0.7871 C2.24 0.2627 3.145 0 4.008 0 C5.174 0 5.959 0.3155 6.362 0.9444 C6.764 1.5752 6.965 2.6944 6.965 4.3047 L6.965 8.9248 L5.67 8.9248 L5.67 4.3399 C5.67 3.126 5.551 2.2959 5.312 1.8467 C5.072 1.3975 4.562 1.1729 3.78 1.1729 C3.406 1.1729 3.013 1.2276 2.599 1.3389 C2.185 1.4502 1.867 1.5576 1.646 1.6621 L1.313 1.8194 L1.313 8.9248 Z" transform="translate(124.576, 81.1904)"/>
   <path style="fill:#ffffff; fill-rule:nonzero;stroke:none;" d="M5.32 3.8154 L2.537 3.8154 L2.537 7.998 C2.537 9.002 2.61 9.6602 2.756 9.9746 C2.901 10.29 3.249 10.4473 3.797 10.4473 L5.354 10.3428 L5.442 11.4277 C4.66 11.5566 4.065 11.6201 3.657 11.6201 C2.747 11.6201 2.117 11.3984 1.767 10.9551 C1.417 10.5117 1.242 9.666 1.242 8.418 L1.242 3.8154 L0 3.8154 L0 2.6777 L1.242 2.6777 L1.242 0 L2.537 0 L2.537 2.6777 L5.32 2.6777 L5.32 3.8154 Z" transform="translate(133.135, 78.6875)"/>
   <path style="fill:#ffffff; fill-rule:nonzero;stroke:none;" d="M0 8.9423 L0 0.1923 L1.295 0.1923 L1.295 1.3818 C2.311 0.6826 3.378 0.2216 4.499 0 L4.499 1.33 C4.008 1.4228 3.498 1.5693 2.967 1.7675 C2.436 1.9658 2.031 2.1416 1.75 2.2919 L1.313 2.5205 L1.313 8.9423 L0 8.9423 Z" transform="translate(140.064, 81.1729)"/>
   <path style="fill:#ffffff; fill-rule:nonzero;stroke:none;" d="M5.547 0 L6.86 0 L6.86 8.75 L5.547 8.75 L5.547 8.1377 C4.672 8.6621 3.809 8.9248 2.957 8.9248 C1.768 8.9248 0.977 8.6162 0.586 7.9981 C0.196 7.3789 0 6.2364 0 4.5674 L0 0 L1.313 0 L1.313 4.5498 C1.313 5.8223 1.423 6.6739 1.645 7.1055 C1.866 7.5371 2.368 7.752 3.15 7.752 C3.534 7.752 3.926 7.6973 4.322 7.586 C4.719 7.4756 5.023 7.3672 5.233 7.2627 L5.547 7.1055 L5.547 0 Z" transform="translate(146.032, 81.3652)"/>
   <path style="fill:#ffffff; fill-rule:nonzero;stroke:none;" d="M1.313 8.9248 L0 8.9248 L0 0.1748 L1.295 0.1748 L1.295 0.7871 C2.17 0.2627 3.022 0 3.851 0 C4.936 0 5.693 0.2979 6.125 0.8916 C6.51 0.6592 7.009 0.4522 7.621 0.2705 C8.235 0.0909 8.774 0 9.24 0 C10.406 0 11.192 0.3116 11.594 0.9366 C11.996 1.5606 12.197 2.6826 12.197 4.3047 L12.197 8.9248 L10.885 8.9248 L10.885 4.3399 C10.885 3.126 10.769 2.2959 10.535 1.8467 C10.302 1.3975 9.806 1.1729 9.048 1.1729 C8.663 1.1729 8.266 1.2276 7.858 1.3389 C7.449 1.4502 7.134 1.5576 6.913 1.6621 L6.58 1.8194 C6.732 2.2041 6.808 3.0567 6.808 4.375 L6.808 8.9248 L5.495 8.9248 L5.495 4.4092 C5.495 3.1494 5.382 2.2959 5.154 1.8467 C4.927 1.3975 4.428 1.1729 3.658 1.1729 C3.284 1.1729 2.902 1.2276 2.512 1.3389 C2.12 1.4502 1.82 1.5576 1.61 1.6621 L1.313 1.8194 L1.313 8.9248 Z" transform="translate(155.411, 81.1904)"/>
   <path style="fill:#ffffff; fill-rule:nonzero;stroke:none;" d="M4.481 6.5449 L1.348 6.5449 L1.348 10.9199 L4.568 10.9199 C5.361 10.9199 5.965 10.7529 6.379 10.4199 C6.793 10.0879 7 9.5019 7 8.6621 C7 8.2187 6.915 7.8457 6.746 7.542 C6.577 7.2382 6.353 7.0234 6.072 6.8945 C5.56 6.6611 5.028 6.5449 4.481 6.5449 Z M4.34 1.1894 L1.348 1.1894 L1.348 5.372 L4.463 5.372 C5.209 5.372 5.755 5.1943 6.099 4.8379 C6.444 4.4824 6.615 3.9453 6.615 3.2285 C6.615 2.5107 6.432 1.9921 6.064 1.6699 C5.696 1.3496 5.122 1.1894 4.34 1.1894 Z M0 0 L4.393 0 C5.594 0 6.495 0.248 7.097 0.7431 C7.697 1.2392 7.998 2.0175 7.998 3.08 C7.998 3.8379 7.866 4.4296 7.604 4.8554 C7.342 5.2812 6.953 5.6171 6.441 5.8613 C7.724 6.3046 8.365 7.2558 8.365 8.7148 C8.365 9.9277 8.044 10.7968 7.403 11.3222 C6.761 11.8466 5.833 12.1093 4.62 12.1093 L0 12.1093 L0 0 Z" transform="translate(174.118, 78.0059)"/>
   <path style="fill:#ffffff; fill-rule:nonzero;stroke:none;" d="M1.348 6.3877 C1.348 7.461 1.791 7.9971 2.678 7.9971 C3.471 7.9971 4.252 7.8633 5.023 7.5948 L5.425 7.4541 L5.425 4.5674 L2.835 4.8125 C2.31 4.8584 1.931 5.0108 1.698 5.2666 C1.464 5.5244 1.348 5.8975 1.348 6.3877 Z M6.738 2.8174 L6.738 7.2979 C6.773 7.7295 7.111 7.9854 7.752 8.0674 L7.701 9.0996 C6.779 9.0996 6.084 8.8662 5.618 8.3994 C4.568 8.8662 3.518 9.0996 2.468 9.0996 C1.662 9.0996 1.05 8.8721 0.63 8.417 C0.21 7.9619 0 7.3096 0 6.458 C0 5.6065 0.216 4.9785 0.648 4.5762 C1.079 4.1729 1.756 3.9258 2.678 3.833 L5.425 3.5694 L5.425 2.8174 C5.425 2.2217 5.296 1.7959 5.04 1.5401 C4.784 1.2832 4.433 1.1553 3.991 1.1553 C3.057 1.1553 2.088 1.2139 1.085 1.3291 L0.542 1.3819 L0.491 0.3848 C1.774 0.128 2.91 0 3.903 0 C4.894 0 5.615 0.2276 6.064 0.6826 C6.513 1.1377 6.738 1.8487 6.738 2.8174 Z" transform="translate(184.111, 81.1904)"/>
   <path style="fill:#ffffff; fill-rule:nonzero;stroke:none;" d="M0 0 L1.313 0 L3.5 7.6123 L4.077 7.6123 L6.283 0 L7.595 0 L3.955 12.6348 L2.643 12.6348 L3.781 8.75 L2.486 8.75 L0 0 Z" transform="translate(192.528, 81.3652)"/>
   <path style="fill:#ffffff; fill-rule:nonzero;stroke:none;" d="M5.862 4.042 C5.862 2.9698 5.69 2.211 5.346 1.7666 C5.002 1.3242 4.442 1.1026 3.666 1.1026 C2.89 1.1026 2.306 1.336 1.916 1.8018 C1.525 2.2686 1.324 3.0157 1.312 4.042 L5.862 4.042 Z M6.335 7.8399 L6.843 7.7871 L6.878 8.8194 C5.548 9.0069 4.41 9.0996 3.465 9.0996 C2.205 9.0996 1.312 8.7354 0.787 8.0059 C0.262 7.2764 0 6.1416 0 4.6026 C0 1.5342 1.218 0 3.657 0 C4.836 0 5.717 0.3291 6.3 0.9893 C6.883 1.6475 7.175 2.6826 7.175 4.0948 L7.105 5.0928 L1.33 5.0928 C1.33 6.0616 1.505 6.7784 1.855 7.2451 C2.205 7.7119 2.814 7.9444 3.683 7.9444 C4.552 7.9444 5.436 7.9092 6.335 7.8399 Z" transform="translate(201.261, 81.1904)"/>
   <path style="fill:#ffffff; fill-rule:nonzero;stroke:none;" d="M0 8.9423 L0 0.1923 L1.295 0.1923 L1.295 1.3818 C2.311 0.6826 3.378 0.2216 4.498 0 L4.498 1.33 C4.008 1.4228 3.497 1.5693 2.967 1.7675 C2.436 1.9658 2.031 2.1416 1.75 2.2919 L1.313 2.5205 L1.313 8.9423 L0 8.9423 Z" transform="translate(210.482, 81.1729)"/>
   <path style="fill:#ffffff; fill-rule:nonzero;stroke:none;" d="M1.313 8.9248 L0 8.9248 L0 0.1748 L1.295 0.1748 L1.295 0.7871 C2.24 0.2627 3.145 0 4.008 0 C5.174 0 5.959 0.3155 6.361 0.9444 C6.764 1.5752 6.965 2.6944 6.965 4.3047 L6.965 8.9248 L5.67 8.9248 L5.67 4.3399 C5.67 3.126 5.551 2.2959 5.312 1.8467 C5.072 1.3975 4.562 1.1729 3.78 1.1729 C3.406 1.1729 3.013 1.2276 2.599 1.3389 C2.185 1.4502 1.867 1.5576 1.646 1.6621 L1.313 1.8194 L1.313 8.9248 Z" transform="translate(216.537, 81.1904)"/>
   <path style="fill:#ffffff; fill-rule:nonzero;stroke:none;" d="M35.9014 40.7607 C33.5957 40.7607 31.9844 39.1494 31.9844 36.8427 L31.9844 11.9238 C31.9844 9.6601 30.1855 7.8877 27.8867 7.8877 C26.7363 7.8877 25.8867 8.248 25.0508 9.0888 C24.2148 9.8799 23.8525 10.7666 23.8525 11.9238 L23.8525 36.8427 C23.8525 39.1494 22.2441 40.7607 19.9375 40.7607 C17.5625 40.7607 15.96 39.1865 15.96 36.8427 L15.96 11.9238 C15.96 10.7666 15.5957 9.8799 14.8096 9.1308 C13.9258 8.248 13.0762 7.8877 11.9258 7.8877 C9.62891 7.8877 7.82617 9.6601 7.82617 11.9238 L7.82617 36.8427 C7.82617 39.1494 6.21875 40.7607 3.91309 40.7607 C1.61035 40.7607 0 39.1494 0 36.8427 L0 11.9238 C0 8.6582 1.16699 5.8369 3.46973 3.5342 C5.81641 1.1875 8.65918 0 11.9258 0 C15.0762 0 17.7852 1.0205 19.9063 2.9873 C22.0273 1.0205 24.7412 0 27.8867 0 C31.1113 0 33.9346 1.1875 36.2783 3.5342 C38.625 5.8789 39.8145 8.7011 39.8145 11.9238 L39.8145 36.8427 C39.8145 39.1494 38.2041 40.7607 35.9014 40.7607 " transform="translate(0, 24.1221)"/>
   <path style="fill:#ffffff; fill-rule:nonzero;stroke:none;" d="M13.6875 41.1416 L13.4365 41.1416 C9.7129 41.1416 6.5068 39.8252 3.9111 37.2276 C1.3134 34.6338 0 31.4277 0 27.7002 L0 13.4434 C0 9.8115 1.3476 6.5391 3.9111 3.9805 C6.5478 1.3399 9.7539 0 13.4365 0 L13.6875 0 C17.333 0 20.5136 1.3399 23.1513 3.9805 C25.791 6.6143 27.1289 9.7998 27.1289 13.4434 L27.1289 20.6358 C27.1289 22.9395 25.5195 24.5488 23.2129 24.5488 L7.8261 24.5488 L7.8261 27.7002 C7.8261 29.2725 8.3623 30.5733 9.4648 31.6758 C10.5683 32.7783 11.8672 33.3174 13.4365 33.3174 L13.6875 33.3174 C15.9599 33.3174 17.4834 32.4033 18.6172 30.3565 C19.6318 28.4736 21.2461 28.2676 21.8935 28.2676 C22.5703 28.2676 23.2383 28.4512 23.9375 28.8252 L24.0176 28.874 C26.0088 30.0342 26.5986 32.2168 25.4502 34.1797 C22.957 38.7158 18.8808 41.1416 13.6875 41.1416 Z M7.8261 16.6592 L19.3027 16.6592 L19.3027 13.4434 C19.3027 11.8945 18.7822 10.6514 17.6631 9.5322 C16.5625 8.4287 15.2607 7.8936 13.6875 7.8936 L13.4365 7.8936 C11.8672 7.8936 10.5683 8.4287 9.4648 9.5322 C8.3457 10.6514 7.8261 11.8945 7.8261 13.4434 L7.8261 16.6592 Z" transform="translate(44.0762, 23.9287)"/>
   <path style="fill:#ffffff; fill-rule:nonzero;stroke:none;" d="M13.6914 54.1377 L13.4404 54.1377 C9.7149 54.1377 6.5068 52.8213 3.9082 50.2237 C1.3154 47.624 0 44.4199 0 40.6963 L0 3.9141 C0 1.6084 1.6074 0 3.9131 0 C6.2188 0 7.8262 1.6084 7.8262 3.9141 L7.8262 14.5664 C9.5332 13.7783 11.416 13.377 13.4404 13.377 L13.6914 13.377 C17.333 13.377 20.5186 14.7139 23.1602 17.3516 C25.7986 19.9893 27.1346 23.1729 27.1346 26.8145 L27.1346 40.6963 C27.1346 44.3799 25.7986 47.584 23.1602 50.2237 C20.5986 52.7822 17.3242 54.1377 13.6914 54.1377 Z M13.4404 21.2647 C11.8672 21.2647 10.5684 21.8028 9.4668 22.9063 C8.377 23.9942 7.8262 25.3067 7.8262 26.8145 L7.8262 40.6963 C7.8262 42.2666 8.3623 43.5684 9.4668 44.6709 C10.5684 45.7735 11.8672 46.3076 13.4404 46.3076 L13.6914 46.3076 C15.2607 46.3076 16.5645 45.7735 17.667 44.6709 C18.7695 43.5684 19.3018 42.2666 19.3018 40.6963 L19.3018 26.8145 C19.3018 25.3067 18.7539 23.9942 17.667 22.9063 C16.5645 21.8028 15.2637 21.2647 13.6914 21.2647 L13.4404 21.2647 Z" transform="translate(75.0664, 10.7451)"/>
   <path style="fill:#ffffff; fill-rule:nonzero;stroke:none;" d="M3.915 40.7607 C1.607 40.7607 0 39.1523 0 36.8476 L0 3.915 C0 1.6093 1.607 0 3.915 0 C6.218 0 7.828 1.6093 7.828 3.915 L7.828 36.8476 C7.828 39.1523 6.218 40.7607 3.915 40.7607 " transform="translate(107.061, 24.1143)"/>
   <path style="fill:#ffffff; fill-rule:nonzero;stroke:none;" d="M11.787 41.1377 L11.597 41.1377 C7.246 41.1377 3.674 39.3819 0.973 35.9112 C0.066 34.8018 0 33.6807 0.112 32.9434 C0.21 32.2803 0.553 31.3057 1.629 30.4248 C2.583 29.6465 3.513 29.4854 4.123 29.4854 C4.93 29.4854 6.115 29.7539 7.166 31.044 C8.36 32.5576 9.76 33.2481 11.597 33.2481 L11.787 33.2481 C12.739 33.2481 13.519 32.9619 14.168 32.3877 C14.721 31.9092 15.084 31.3057 15.278 30.5713 L15.326 30.4131 C15.409 30.1572 15.445 29.8799 15.445 29.4649 C15.445 28.0186 14.903 27.0518 13.684 26.3233 L5.729 21.5938 C2.049 19.3526 0.114 15.9492 0.114 11.7363 C0.114 10.6543 0.28 9.5371 0.596 8.499 C1.967 3.4131 6.407 0 11.66 0 L11.851 0 C16.228 0 19.82 1.7998 22.535 5.3438 C23.946 7.1104 23.684 9.3623 21.883 10.835 L21.764 10.9307 C21.011 11.4746 20.207 11.7529 19.371 11.7529 C18.712 11.7529 17.438 11.5567 16.346 10.2197 L16.272 10.127 C15.123 8.5772 13.76 7.8897 11.851 7.8897 L11.66 7.8897 C10.711 7.8897 9.934 8.1719 9.276 8.75 C8.729 9.2276 8.364 9.8311 8.172 10.5645 L8.125 10.7276 C8.08 10.8604 8.004 11.1602 8.004 11.6729 C8.004 13.1192 8.545 14.085 9.768 14.8076 L17.719 19.543 C21.401 21.7822 23.336 25.1865 23.336 29.3994 C23.336 30.4795 23.176 31.5908 22.859 32.7022 C21.498 37.7315 17.046 41.1377 11.787 41.1377 " transform="translate(119.324, 23.9326)"/>
   <path style="fill:#ffffff; fill-rule:nonzero;stroke:none;" d="M27.046 0 C16.832 0 7.322 4.59278 0.957 12.5957 C0 13.7968 0.199 15.5498 1.402 16.5049 C2.604 17.4599 4.357 17.2607 5.311 16.0566 C10.614 9.38863 18.537 5.5625 27.046 5.5625 C42.348 5.5625 54.797 18.0127 54.797 33.3164 C54.797 48.6142 42.348 61.0674 27.046 61.0674 C22.015 61.0674 17.232 59.7392 13.08 57.3232 L6.353 59.376 C12.175 63.9775 19.457 66.626 27.046 66.626 C45.417 66.626 60.36 51.6826 60.36 33.3164 C60.36 14.9472 45.417 0 27.046 0 Z" transform="translate(163.643, 2.84277)"/>
   <path style="fill:#ffffff; fill-rule:nonzero;stroke:none;" d="M0.378 38.1055 L17.29 10.706 C17.509 10.3525 17.845 10.0879 18.24 9.9619 L49.111 0.2187 C49.794 0 50.538 0.2275 50.987 0.7861 C51.434 1.3467 51.488 2.123 51.132 2.7402 L35.091 30.208 C34.872 30.5859 34.52 30.8652 34.103 30.9941 L2.354 40.6719 C1.666 40.8828 0.92 40.6455 0.48 40.0723 C0.04 39.5039 0 38.7187 0.378 38.1055 " transform="translate(149.048, 24.3047)"/>
   <path style="fill:#ffffff; fill-rule:nonzero;stroke:none;" d="M5.177 10.3515 C2.271 10.3515 0 8.0791 0 5.1767 C0 2.2734 2.271 0 5.177 0 C8.08 0 10.351 2.2734 10.351 5.1767 C10.351 8.0791 8.08 10.3515 5.177 10.3515 " transform="translate(105.799, 10.7383)"/>
  </g>
 </g>
</svg>
